<?xml version="1.0" encoding="utf-8"?>
<svg version="1.1" xmlns="http://www.w3.org/2000/svg" x="0px" y="0px"
	 viewBox="0 0 16 16" style="enable-background:new 0 0 16 16;" xml:space="preserve">
<path fill="#3A7CAE" d="M2.718,4.121H1.5v0.913h1.218v2.548H1.5v0.913h1.218v2.548H1.5v0.913h1.218v3.007h2.131V1.114H2.718V4.121z
	 M5.762,1.114v13.852h8.676V1.114H5.762z M10.1,5.25c0.742,0,1.344,0.602,1.344,1.344S10.842,7.937,10.1,7.937
	c-0.742,0-1.344-0.602-1.344-1.344S9.358,5.25,10.1,5.25z M7.665,10.829c0-1.345,1.09-2.435,2.435-2.435s2.435,1.09,2.435,2.435
	H7.665z"/>
</svg>
