<?xml version="1.0" encoding="utf-8"?>
<!-- Generator: Adobe Illustrator 22.1.0, SVG Export Plug-In . SVG Version: 6.00 Build 0)  -->
<svg version="1.1" id="Layer_1" xmlns="http://www.w3.org/2000/svg" xmlns:xlink="http://www.w3.org/1999/xlink" x="0px" y="0px"
	 viewBox="0 0 64 64" style="enable-background:new 0 0 64 64;" xml:space="preserve">
<path style="fill:#133e5d;" d="M0-0.0000146h64v64H0V-0.0000146z"/>
<g>
	<path style="fill:#FFFFFF;" d="M48.8746643,41.7604446c-3.1253471-0.8523712-5.3983307-2.0835686-7.5766029-2.9359322
		c0,0.4735374-0.0947075,0.8523674-0.4735374,1.2311974c-1.3259087,1.4206123-3.4094734,2.2729836-5.7771645,2.2729836
		c-2.3676872,0-4.5459633-0.8523712-5.7771606-2.2729836c-0.4735374-0.4735374-0.5682468-0.8523712-0.4735374-1.3259087
		c-2.1782742,0.9470749-4.4512577,2.0835686-7.5766068,2.9359322c0,0-2.9359341,1.7047386-3.2200565,8.3342667h34.0947266
		C51.9053078,43.2757645,48.8746643,41.7604408,48.8746643,41.7604446z"/>
	<path style="fill:#FFFFFF;" d="M35.0473633,35.2256203c-1.5153236,0-3.0306435-0.8523674-4.2618408-2.0835648
		c-0.0947094,5.1142082-1.6100311,5.5877457-0.8523693,6.3454056c2.3676891,2.557106,7.6713123,2.746521,10.2284184,0
		c0.7576599-0.7576599-0.5682449-1.2311974-0.8523674-6.4401131C38.0780067,34.2785454,36.5626831,35.2256203,35.0473633,35.2256203
		z"/>
	<path style="fill:#FFFFFF;" d="M35.0473633,35.2256203c-3.5988884,0-7.2924843-4.9247932-7.2924843-8.3342648v-4.7353783
		c0-3.4094734,3.0306435-6.1559916,6.4401131-6.1559916h1.7047348c3.5988884,0,6.4401169,2.7465181,6.4401169,6.1559916v4.7353783
		C42.2451363,30.3008289,38.646244,35.2256203,35.0473633,35.2256203z"/>
</g>
<rect x="12" y="12" style="fill:#FFFFFF;" width="2" height="40"/>
</svg>
