<?xml version="1.0" encoding="utf-8"?>
<svg version="1.1" xmlns="http://www.w3.org/2000/svg" x="0px" y="0px"
	 viewBox="0 0 28 28" style="enable-background:new 0 0 28 28;" xml:space="preserve">
<rect fill="#3A7CAE" width="28" height="28"/>
<path fill="#FFFFFF" d="M6.11,8.166H4.289v1.366H6.11v3.81H4.289v1.366H6.11v3.81H4.289v1.366H6.11v4.497h3.186V3.67H6.11V8.166z
	 M10.662,3.67v20.71h12.972V3.67H10.662z M17.148,9.854c1.11,0,2.009,0.899,2.009,2.009s-0.899,2.009-2.009,2.009
	c-1.11,0-2.009-0.899-2.009-2.009S16.038,9.854,17.148,9.854z M13.507,18.196c0-2.011,1.63-3.641,3.641-3.641
	s3.641,1.63,3.641,3.641H13.507z"/>
</svg>
