<?xml version="1.0" encoding="utf-8"?>
<svg version="1.1" xmlns="http://www.w3.org/2000/svg" x="0px" y="0px"
	 viewBox="0 0 16 16" style="enable-background:new 0 0 16 16;" xml:space="preserve">
<path fill="#1C3C4C" d="M0.984,3.52h14.107v11.462H0.984V3.52z"/>
<path fill="#FFFFFF" d="M0.984,11.896h14.107v0.882H0.984V11.896z"/>
<path fill="#3A7CAE" d="M4.511,0.875h7.054v14.107H4.511V0.875z"/>
<path fill="#FFFFFF" d="M6.275,13.265h3.527v1.717H6.275V13.265z M13.328,9.692h0.882v0.882h-0.882V9.692z M13.328,7.928h0.882V8.81
	h-0.882V7.928z M13.328,6.165h0.882v0.882h-0.882V6.165z M1.866,9.692h0.882v0.882H1.866V9.692z M1.866,7.928h0.882V8.81H1.866
	V7.928z M1.866,6.165h0.882v0.882H1.866V6.165z M6.273,9.692h0.882v0.882H6.273V9.692z M8.918,9.692H9.8v0.882H8.918V9.692z
	 M6.273,7.928h0.882V8.81H6.273V7.928z M8.918,7.928H9.8V8.81H8.918V7.928z M6.273,6.165h0.882v0.882H6.273V6.165z M8.918,6.165H9.8
	v0.882H8.918V6.165z M6.273,4.402h0.882v0.882H6.273V4.402z M8.918,4.402H9.8v0.882H8.918V4.402z M6.273,2.636h0.882v0.882H6.273
	V2.636z M8.918,2.636H9.8v0.882H8.918V2.636z"/>
</svg>
