<?xml version="1.0" encoding="utf-8"?>
<svg version="1.1" id="Ebene_1" xmlns="http://www.w3.org/2000/svg" xmlns:xlink="http://www.w3.org/1999/xlink" x="0px" y="0px"
	 viewBox="0 0 16 16" style="enable-background:new 0 0 16 16;" xml:space="preserve">
<path fill="#3A7CAE" d="M7.995,1.859c3.384,0,6.127,2.743,6.127,6.127s-2.743,6.127-6.127,6.127S1.868,11.37,1.868,7.986
	S4.612,1.859,7.995,1.859 M7.995,0.984c-3.861,0-7.002,3.141-7.002,7.002s3.141,7.002,7.002,7.002s7.002-3.141,7.002-7.002
	S11.856,0.984,7.995,0.984z M14.122,7.442C13.93,5.373,12.72,3.597,11.02,2.645c-0.081,0.085-0.102,0.035-0.102,0.12
	c-0.242,0.085-0.565-0.085-0.808-0.17C9.517,2.358,8.863,2.329,8.252,2.51C8.009,2.595,7.445,2.68,7.686,3.19
	C7.847,3.445,8.251,3.7,8.655,3.36c0.161-0.17,0.324-0.425,0.565-0.17c0.081,0.086,0.081,0.171,0.081,0.256
	C9.22,3.7,8.977,3.786,8.736,3.786c-0.324,0.085-0.648,0-0.97,0.085C7.442,3.956,6.958,4.04,6.958,4.466
	c0,0.508-0.162,0.593-0.566,0.678c-0.324,0-0.484,0.17-0.324,0.509c0.081,0.254,0.324,0.254,0.486,0.17
	c0.646-0.34,1.211-1.189,1.938-0.17l0.161-0.085c0.162-0.679,0.324-0.254,0.485,0L9.38,5.823c0.969-0.933,0.726,0.425,1.05,0.679
	c-0.648-0.17-1.374,0.509-1.939,0.085c-0.969-0.763-1.615-0.424-2.503,0.34C5.262,7.521,5.1,8.285,5.262,8.964
	c0.242,0.849,1.129,0.934,1.857,0.764c0.242-0.086,0.726-0.086,0.726,0.084c-0.162,0.764,0.726,1.274,0.403,2.122
	c-0.242,0.679,0.163,1.528,0.726,1.783c0.566,0.254,1.05-0.425,1.294-1.019c0.081-0.085,0-0.254,0.081-0.34
	c0.646-0.849,0.565-2.122,1.372-2.971c0.242-0.254,1.05-1.188,0.403-1.952c1.535-0.425,0.972,1.103,1.294,1.783
	c0.242-0.509,0.403-1.019,0.565-1.444C14.063,7.521,14.122,7.442,14.122,7.442z M5.293,2.918c0.254-0.268,0.265-0.312,0.52-0.67
	C5.28,2.436,4.61,2.807,4.13,3.211l0.147,0.155h0.764c0,0,0.085,0,0.085-0.088l0.085-0.09c0,0,0.085,0,0.085-0.089L5.38,3.009
	l0.085-0.09c-0.254,0.179-0.254,0.09-0.17,0c0,0.09,0,0.09,0,0c0,0.09,0,0,0,0S5.293,2.918,5.293,2.918z M4.161,11.181
	C4.161,11.181,4.077,11.101,4.161,11.181C4.077,11.101,4.077,11.101,4.161,11.181v-0.242l-0.084-0.081
	c-0.083,0-0.083-0.081-0.166-0.081c-0.083,0-0.166-0.081-0.25-0.081H3.493c0,0-0.083,0-0.083-0.081
	c-0.585-0.324-0.834-0.888-1.001-1.534c0-0.162-0.083-0.324-0.083-0.485C2.243,8.516,2.243,8.435,2.159,8.354
	C1.993,8.193,2.077,7.87,2.243,7.547V7.386c0-0.081,0-0.081,0.083-0.162c0-0.079,0-0.079,0.084-0.16
	C2.577,6.74,2.911,6.498,3.077,6.256C3.16,6.175,3.16,6.175,3.16,6.095V6.014C3.243,5.934,3.243,5.772,3.327,5.69
	c0-0.079,0.084-0.242,0.084-0.322c0-0.162,0-0.242-0.084-0.403C3.243,4.722,3.192,4.512,3.026,4.35
	c-0.751,1.05-1.199,2.228-1.199,3.6c0,1.858,0.79,3.506,2.113,4.66c0,0,0.053,0.023,0.053-0.056v-0.082
	c0-0.081,0.083-0.081,0.083-0.161C4.16,11.987,4.16,11.504,4.161,11.181C4.16,11.182,4.161,11.181,4.161,11.181z"/>
</svg>
