<?xml version="1.0" encoding="utf-8"?>
<svg version="1.1" xmlns="http://www.w3.org/2000/svg" x="0px" y="0px"
	 viewBox="0 0 16 16" style="enable-background:new 0 0 16 16;" xml:space="preserve">
<path fill="#3A7CAE" d="M8.007,0.89c-2.628,0-4.766,2.138-4.766,4.766c0,0.789,0.197,1.571,0.572,2.265l3.933,7.114
	c0.052,0.095,0.152,0.154,0.261,0.154s0.208-0.059,0.261-0.154l3.935-7.116c0.374-0.691,0.571-1.474,0.571-2.263
	C12.773,3.028,10.635,0.89,8.007,0.89z M8.007,8.039c-1.314,0-2.383-1.069-2.383-2.383s1.069-2.383,2.383-2.383
	s2.383,1.069,2.383,2.383S9.321,8.039,8.007,8.039z"/>
</svg>
