<?xml version="1.0" encoding="utf-8"?>
<svg version="1.1" xmlns="http://www.w3.org/2000/svg" x="0px" y="0px"
	 viewBox="0 0 16 16" style="enable-background:new 0 0 16 16;" xml:space="preserve">
<path fill="#3A7CAE" d="M11.757,10.285c-0.463-0.457-1.041-0.457-1.501,0c-0.351,0.348-0.702,0.696-1.047,1.05
	c-0.094,0.097-0.174,0.118-0.289,0.053c-0.227-0.124-0.469-0.224-0.687-0.36c-1.017-0.64-1.87-1.463-2.624-2.389
	C5.234,8.18,4.9,7.687,4.668,7.133C4.62,7.021,4.629,6.947,4.721,6.855C5.071,6.516,5.414,6.168,5.759,5.82
	c0.481-0.484,0.481-1.05-0.003-1.536C5.481,4.007,5.207,3.736,4.933,3.458C4.65,3.175,4.37,2.889,4.084,2.609
	C3.621,2.158,3.043,2.158,2.583,2.612C2.229,2.96,1.89,3.317,1.53,3.659C1.197,3.974,1.029,4.361,0.993,4.812
	C0.937,5.546,1.117,6.239,1.371,6.914C1.89,8.312,2.68,9.554,3.638,10.692c1.295,1.539,2.84,2.757,4.647,3.636
	c0.814,0.395,1.657,0.699,2.574,0.749c0.631,0.035,1.18-0.124,1.619-0.616c0.301-0.336,0.64-0.643,0.958-0.964
	c0.472-0.478,0.475-1.056,0.006-1.528C12.883,11.406,12.32,10.845,11.757,10.285z M11.193,7.935l1.088-0.186
	c-0.171-1-0.643-1.905-1.359-2.624C10.164,4.367,9.206,3.889,8.15,3.741L7.997,4.835c0.817,0.115,1.56,0.484,2.147,1.07
	C10.698,6.46,11.061,7.162,11.193,7.935z M12.895,3.205c-1.256-1.256-2.846-2.049-4.6-2.294L8.141,2.005
	c1.516,0.212,2.89,0.899,3.975,1.982c1.029,1.029,1.704,2.33,1.949,3.76l1.088-0.186C14.868,5.903,14.086,4.399,12.895,3.205z"/>
</svg>
